<svg xmlns="http://www.w3.org/2000/svg" xmlns:xlink="http://www.w3.org/1999/xlink" contentStyleType="text/css" data-diagram-type="CLASS" height="384px" preserveAspectRatio="none" style="width:613px;height:384px;background:#FFFFFF;" version="1.1" viewBox="0 0 613 384" width="613px" zoomAndPan="magnify"><defs/><g><!--class Main--><g class="entity" data-entity="Main" data-source-line="2" data-uid="ent0002" id="entity_Main"><rect fill="#F1F1F1" height="80.9766" rx="2.5" ry="2.5" style="stroke:#181818;stroke-width:0.5;" width="155.2813" x="7" y="7"/><ellipse cx="64.1279" cy="23" fill="#ADD1B2" rx="11" ry="11" style="stroke:#181818;stroke-width:1;"/><path d="M67.1011,28.6431 Q66.52,28.9419 65.8809,29.0913 Q65.2417,29.2407 64.5361,29.2407 Q62.0293,29.2407 60.7095,27.5889 Q59.3896,25.937 59.3896,22.8159 Q59.3896,19.6865 60.7095,18.0347 Q62.0293,16.3828 64.5361,16.3828 Q65.2417,16.3828 65.8892,16.5322 Q66.5366,16.6816 67.1011,16.9805 L67.1011,19.7031 Q66.4702,19.1221 65.8767,18.8523 Q65.2832,18.5825 64.6523,18.5825 Q63.3076,18.5825 62.6228,19.6492 Q61.938,20.7158 61.938,22.8159 Q61.938,24.9077 62.6228,25.9744 Q63.3076,27.041 64.6523,27.041 Q65.2832,27.041 65.8767,26.7712 Q66.4702,26.5015 67.1011,25.9204 Z " fill="#000000"/><text fill="#000000" font-family="sans-serif" font-size="14" lengthAdjust="spacing" textLength="32.5254" x="84.6279" y="28.291">Main</text><line style="stroke:#181818;stroke-width:0.5;" x1="8" x2="161.2813" y1="39" y2="39"/><line style="stroke:#181818;stroke-width:0.5;" x1="8" x2="161.2813" y1="47" y2="47"/><ellipse cx="18" cy="60.7441" fill="#84BE84" rx="3" ry="3" style="stroke:#038048;stroke-width:1;"/><text fill="#000000" font-family="sans-serif" font-size="14" lengthAdjust="spacing" textLength="46.0605" x="27" y="64.5352">Main():</text><ellipse cx="18" cy="77.2324" fill="#84BE84" rx="3" ry="3" style="stroke:#038048;stroke-width:1;"/><text fill="#000000" font-family="sans-serif" font-size="14" lengthAdjust="spacing" textLength="129.2813" x="27" y="81.0234">main(String[]): void</text></g><!--class CompleteBinaryTree--><g class="entity" data-entity="CompleteBinaryTree" data-source-line="6" data-uid="ent0003" id="entity_CompleteBinaryTree"><rect fill="#F1F1F1" height="229.3711" rx="2.5" ry="2.5" style="stroke:#181818;stroke-width:0.5;" width="405.3125" x="70.98" y="147.98"/><ellipse cx="200.9893" cy="163.98" fill="#ADD1B2" rx="11" ry="11" style="stroke:#181818;stroke-width:1;"/><path d="M203.9624,169.6231 Q203.3814,169.9219 202.7422,170.0713 Q202.103,170.2207 201.3975,170.2207 Q198.8906,170.2207 197.5708,168.5689 Q196.251,166.917 196.251,163.7959 Q196.251,160.6665 197.5708,159.0147 Q198.8906,157.3628 201.3975,157.3628 Q202.103,157.3628 202.7505,157.5122 Q203.398,157.6616 203.9624,157.9605 L203.9624,160.6831 Q203.3316,160.1021 202.7381,159.8323 Q202.1446,159.5625 201.5137,159.5625 Q200.169,159.5625 199.4842,160.6292 Q198.7993,161.6958 198.7993,163.7959 Q198.7993,165.8877 199.4842,166.9544 Q200.169,168.021 201.5137,168.021 Q202.1446,168.021 202.7381,167.7512 Q203.3316,167.4815 203.9624,166.9004 Z " fill="#000000"/><text fill="#000000" font-family="sans-serif" font-size="14" lengthAdjust="spacing" textLength="136.7939" x="221.4893" y="169.271">CompleteBinaryTree</text><line style="stroke:#181818;stroke-width:0.5;" x1="71.98" x2="475.2925" y1="179.98" y2="179.98"/><text fill="#000000" font-family="sans-serif" font-size="14" lengthAdjust="spacing" textLength="127.1553" x="76.98" y="197.5152">maxHeap: boolean</text><text fill="#000000" font-family="sans-serif" font-size="14" lengthAdjust="spacing" textLength="180.2979" x="76.98" y="214.0034">binarySearchTree: boolean</text><line style="stroke:#181818;stroke-width:0.5;" x1="71.98" x2="475.2925" y1="220.9566" y2="220.9566"/><ellipse cx="81.98" cy="234.7007" fill="#84BE84" rx="3" ry="3" style="stroke:#038048;stroke-width:1;"/><text fill="#000000" font-family="sans-serif" font-size="14" lengthAdjust="spacing" textLength="190.2988" x="90.98" y="238.4917">CompleteBinaryTree(String):</text><ellipse cx="81.98" cy="251.189" fill="#84BE84" rx="3" ry="3" style="stroke:#038048;stroke-width:1;"/><text fill="#000000" font-family="sans-serif" font-size="14" lengthAdjust="spacing" textLength="207.4502" x="90.98" y="254.98">CompleteBinaryTree(Integer[]):</text><rect fill="#F24D5C" height="6" style="stroke:#C82930;stroke-width:1;" width="6" x="78.98" y="264.6773"/><text fill="#000000" font-family="sans-serif" font-size="14" lengthAdjust="spacing" textLength="238.998" x="90.98" y="271.4683">isMaxHeap(TreeNode, int): boolean</text><ellipse cx="81.98" cy="284.1655" fill="#84BE84" rx="3" ry="3" style="stroke:#038048;stroke-width:1;"/><text fill="#000000" font-family="sans-serif" font-size="14" lengthAdjust="spacing" textLength="105.6768" x="90.98" y="287.9566">preorder(): void</text><rect fill="#F24D5C" height="6" style="stroke:#C82930;stroke-width:1;" width="6" x="78.98" y="297.6538"/><text fill="#000000" font-family="sans-serif" font-size="14" lengthAdjust="spacing" textLength="324.8711" x="90.98" y="304.4448">inorderList(TreeNode, ArrayList&lt;Integer&gt;): void</text><rect fill="#F24D5C" height="6" style="stroke:#C82930;stroke-width:1;" width="6" x="78.98" y="314.1421"/><text fill="#000000" font-family="sans-serif" font-size="14" lengthAdjust="spacing" textLength="198.2422" x="90.98" y="320.9331">preorder(TreeNode, int): void</text><rect fill="#F24D5C" height="6" style="stroke:#C82930;stroke-width:1;" width="6" x="78.98" y="330.6304"/><text fill="#000000" font-family="sans-serif" font-size="14" lengthAdjust="spacing" textLength="379.3125" x="90.98" y="337.4214">isBinarySearchTree(TreeNode, Integer, Integer): boolean</text><polygon fill="#FFFF44" points="81.98,345.1187,85.98,349.1187,81.98,353.1187,77.98,349.1187" style="stroke:#B38D22;stroke-width:1;"/><text fill="#000000" font-family="sans-serif" font-size="14" lengthAdjust="spacing" textLength="239.9893" x="90.98" y="353.9097">makeNode(Integer[], int): TreeNode</text><ellipse cx="81.98" cy="366.607" fill="#84BE84" rx="3" ry="3" style="stroke:#038048;stroke-width:1;"/><text fill="#000000" font-family="sans-serif" font-size="14" lengthAdjust="spacing" textLength="221.5732" x="90.98" y="370.398">inorderList(): ArrayList&lt;Integer&gt;</text></g><!--class InvalidTreeException--><g class="entity" data-entity="InvalidTreeException" data-source-line="20" data-uid="ent0004" id="entity_InvalidTreeException"><rect fill="#F1F1F1" height="64.4883" rx="2.5" ry="2.5" style="stroke:#181818;stroke-width:0.5;" width="220.8174" x="385.23" y="15.25"/><ellipse cx="421.6072" cy="31.25" fill="#ADD1B2" rx="11" ry="11" style="stroke:#181818;stroke-width:1;"/><path d="M424.5803,36.8931 Q423.9993,37.1919 423.3601,37.3413 Q422.721,37.4907 422.0154,37.4907 Q419.5086,37.4907 418.1887,35.8389 Q416.8689,34.187 416.8689,31.0659 Q416.8689,27.9365 418.1887,26.2847 Q419.5086,24.6328 422.0154,24.6328 Q422.721,24.6328 423.3684,24.7822 Q424.0159,24.9316 424.5803,25.2305 L424.5803,27.9531 Q423.9495,27.3721 423.356,27.1023 Q422.7625,26.8325 422.1316,26.8325 Q420.7869,26.8325 420.1021,27.8992 Q419.4173,28.9658 419.4173,31.0659 Q419.4173,33.1577 420.1021,34.2244 Q420.7869,35.291 422.1316,35.291 Q422.7625,35.291 423.356,35.0212 Q423.9495,34.7515 424.5803,34.1704 Z " fill="#000000"/><text fill="#000000" font-family="sans-serif" font-size="14" lengthAdjust="spacing" textLength="141.3125" x="440.3577" y="36.541">InvalidTreeException</text><line style="stroke:#181818;stroke-width:0.5;" x1="386.23" x2="605.0474" y1="47.25" y2="47.25"/><line style="stroke:#181818;stroke-width:0.5;" x1="386.23" x2="605.0474" y1="55.25" y2="55.25"/><ellipse cx="396.23" cy="68.9941" fill="#84BE84" rx="3" ry="3" style="stroke:#038048;stroke-width:1;"/><text fill="#000000" font-family="sans-serif" font-size="14" lengthAdjust="spacing" textLength="194.8174" x="405.23" y="72.7852">InvalidTreeException(String):</text></g><!--class TreeNode--><g class="entity" data-entity="TreeNode" data-source-line="24" data-uid="ent0005" id="entity_TreeNode"><rect fill="#F1F1F1" height="64.4883" rx="2.5" ry="2.5" style="stroke:#181818;stroke-width:0.5;" width="153.2852" x="197" y="15.25"/><ellipse cx="236.9979" cy="31.25" fill="#ADD1B2" rx="11" ry="11" style="stroke:#181818;stroke-width:1;"/><path d="M239.971,36.8931 Q239.3899,37.1919 238.7508,37.3413 Q238.1116,37.4907 237.4061,37.4907 Q234.8992,37.4907 233.5794,35.8389 Q232.2596,34.187 232.2596,31.0659 Q232.2596,27.9365 233.5794,26.2847 Q234.8992,24.6328 237.4061,24.6328 Q238.1116,24.6328 238.7591,24.7822 Q239.4065,24.9316 239.971,25.2305 L239.971,27.9531 Q239.3401,27.3721 238.7466,27.1023 Q238.1531,26.8325 237.5223,26.8325 Q236.1775,26.8325 235.4927,27.8992 Q234.8079,28.9658 234.8079,31.0659 Q234.8079,33.1577 235.4927,34.2244 Q236.1775,35.291 237.5223,35.291 Q238.1531,35.291 238.7466,35.0212 Q239.3401,34.7515 239.971,34.1704 Z " fill="#000000"/><text fill="#000000" font-family="sans-serif" font-size="14" lengthAdjust="spacing" textLength="65.7344" x="256.5529" y="36.541">TreeNode</text><line style="stroke:#181818;stroke-width:0.5;" x1="198" x2="349.2852" y1="47.25" y2="47.25"/><line style="stroke:#181818;stroke-width:0.5;" x1="198" x2="349.2852" y1="55.25" y2="55.25"/><ellipse cx="208" cy="68.9941" fill="#84BE84" rx="3" ry="3" style="stroke:#038048;stroke-width:1;"/><text fill="#000000" font-family="sans-serif" font-size="14" lengthAdjust="spacing" textLength="127.2852" x="217" y="72.7852">TreeNode(Integer):</text></g><!--reverse link TreeNode to CompleteBinaryTree--><g class="link" data-entity-1="TreeNode" data-entity-2="CompleteBinaryTree" data-source-line="28" data-uid="lnk6" id="link_TreeNode_CompleteBinaryTree"><path codeLine="28" d="M273.64,95.95 C273.64,114.36 273.64,122.86 273.64,147.9" fill="none" id="TreeNode-backto-CompleteBinaryTree" style="stroke:#820000;stroke-width:1;"/><ellipse cx="273.64" cy="87.95" fill="#FFFFFF" rx="8" ry="8" style="stroke:#820000;stroke-width:1;"/><line style="stroke:#820000;stroke-width:1;" x1="273.64" x2="273.64" y1="95.95" y2="79.95"/><line style="stroke:#820000;stroke-width:1;" x1="265.64" x2="281.64" y1="87.95" y2="87.95"/></g><!--SRC=[RL9DQm8n4BtlhmXuMT65qbEHKcYBe51xiJVn47S76ngJC0cY5Fzxasa-LjsS9lFUl7cJIIkvjMp5XMA_5MCJ2klnZE93YDSEXTfljkCPEshHLPUgfPftVJ0I7Bm9nV7yXG1HuHw86b5r05yg1tl0qCHJ6YRiYfyMm4qTu4_TmPG9vRo5dTOIk28XWw2n0woJDIfLbFiGrlMANn7vEUIUOwkNVaqMkkrMLEs_spLmRB_9S-56oHnSsHpvL_mXOfaooIS9cgPlt6FtZZtBQz6pz1kmtOsp0bwgkAkbEd8fke3EJoqO9tJQzn1KzfKLajLObQvr7ZbGC-dgJ9hDwEdnmP-faVv7RHisy0V-0000]--></g></svg>
